HIERARCHY
ROOT Hips
{
  OFFSET 60.9719 91.1665 -12.0264
  CHANNELS 6 Xposition Yposition Zposition Zrotation Xrotation Yrotation
  JOINT RightUpLeg
  {
    OFFSET -8.9458 -8.66707 0.101652
    CHANNELS 3 Zrotation Xrotation Yrotation
    JOINT RightLeg
    {
      OFFSET 0 -44.4227 1.3727
      CHANNELS 3 Zrotation Xrotation Yrotation
      JOINT RightFoot
      {
        OFFSET 0.253549 -42.0924 -1.46059
        CHANNELS 3 Zrotation Xrotation Yrotation
        JOINT RightToes
        {
          OFFSET 0.04 -4.41509 8.4991
          CHANNELS 3 Zrotation Xrotation Yrotation
          End Site
          {
            OFFSET -0.08 -0.137448 9.77979
          }
        }
      }
    }
  }
  JOINT Spine
  {
    OFFSET 0 11.8905 0
    CHANNELS 3 Zrotation Xrotation Yrotation
    JOINT Spine1
    {
      OFFSET 0 25.6574 0.127663
      CHANNELS 3 Zrotation Xrotation Yrotation
      JOINT HEad
      {
        OFFSET 0 8.73416 0.011341
        CHANNELS 3 Zrotation Xrotation Yrotation
        End Site
        {
          OFFSET -0.29 12.7742 2.51395
        }
      }
      JOINT LeftShoulder1
      {
        OFFSET 8.99 -0.362252 -0.22
        CHANNELS 3 Zrotation Xrotation Yrotation
        JOINT LeftArm
        {
          OFFSET 10.2827 -0.00338 0.322123
          CHANNELS 3 Zrotation Xrotation Yrotation
          JOINT LeftForeArm
          {
            OFFSET 32.7669 0.099144 -1.42434
            CHANNELS 3 Zrotation Xrotation Yrotation
            JOINT LeftHand
            {
              OFFSET 27.5643 0.085362 1.02216
              CHANNELS 3 Zrotation Xrotation Yrotation
              End Site
              {
                OFFSET 16.7443 -0.6 1.50291
              }
            }
          }
        }
      }
      JOINT RightShoulder
      {
        OFFSET -8.99 -0.362252 -0.22
        CHANNELS 3 Zrotation Xrotation Yrotation
        JOINT RightArm
        {
          OFFSET -10.2827 -0.00338 0.322123
          CHANNELS 3 Zrotation Xrotation Yrotation
          JOINT RightForeArm
          {
            OFFSET -32.8971 0.099144 -1.42434
            CHANNELS 3 Zrotation Xrotation Yrotation
            JOINT RightHand
            {
              OFFSET -27.4921 0.085362 1.02216
              CHANNELS 3 Zrotation Xrotation Yrotation
              End Site
              {
                OFFSET -16.6312 -0.6 1.50291
              }
            }
          }
        }
      }
    }
  }
  JOINT LeftUpLeg
  {
    OFFSET 8.9458 -8.66707 0.101652
    CHANNELS 3 Zrotation Xrotation Yrotation
    JOINT LeftLeg
    {
      OFFSET 0 -44.4227 1.3727
      CHANNELS 3 Zrotation Xrotation Yrotation
      JOINT LeftFoot
      {
        OFFSET -0.253549 -42.0924 -1.46059
        CHANNELS 3 Zrotation Xrotation Yrotation
        JOINT LeftToes
        {
          OFFSET -0.04 -4.41509 8.4991
          CHANNELS 3 Zrotation Xrotation Yrotation
          End Site
          {
            OFFSET 0.08 -0.047448 9.77979
          }
        }
      }
    }
  }
}
MOTION
Frames:	8
Frame Time:	0.0166667
48.772 90.7145 -18.7819 -3.54314 -0.192387 -169.451 -28.925 -30.395 7.04721 1.48294 40.9872 7.37579 8.04151 17.2152 -1.98991 0.0462048 0.000533403 0.662642 1.60918 8.40216 -2.48771 -0.573565 16.6159 -4.4584 -2.16761 -2.77513 7.19576 5.96354e-016 -6.36111e-015 -0 -102.431 -36.6517 -52.6083 -49.5497 60.822 -73.1842 7.21815 19.4659 -2.26649 18.5147 -1.91506 -11.6488 81.7546 -28.1426 51.2017 -10.3544 55.5119 137.106 -23.3486 18.4888 2.73421 25.1224 -15.2949 -16.0573 -21.1436 41.6544 32.2818 11.2717 12.7971 -1.26782 -1.36813e-009 1.55994e-007 -4.83559e-009 
48.1142 90.3017 -19.015 -3.79695 0.0672629 -165.267 -31.0489 -27.7389 7.13927 4.46448 41.5467 2.48031 6.56885 17.2217 -1.78909 0.0462048 0.000533403 0.662642 1.38505 8.6981 -1.49455 -1.46917 17.3157 -2.46052 0.00686722 -2.69859 2.45543 -8.82781e-032 -3.18055e-015 -1.59028e-015 -99.4868 -31.4461 -47.6118 -50.5551 62.2122 -74.8814 7.21815 19.4659 -2.26649 20.2562 -2.53387 -13.6933 82.1581 -36.2561 50.0087 -9.1711 58.6471 136.039 -25.1902 18.0056 4.52471 26.9182 -17.9089 -16.9137 -20.1307 39.6123 28.7172 9.13505 11.1671 -0.857744 -1.36813e-009 1.55994e-007 -4.83559e-009 
47.2217 89.7659 -19.2314 -3.89344 0.279267 -160.911 -32.9035 -24.8314 7.30895 7.34706 41.8865 -2.30943 5.23932 17.0382 -1.60293 0.0462048 0.000533403 0.662642 1.3283 8.94833 -0.589184 -2.30138 17.9343 -0.642997 2.49055 -2.58065 -2.41262 -0 0 3.18055e-015 -96.6895 -25.7426 -44.0204 -49.7492 62.9028 -77.1696 7.21815 19.4659 -2.26649 22.0225 -3.15773 -15.4629 82.3742 -45.2043 48.8485 -7.7239 62.0917 134.274 -26.9486 17.5293 6.04628 28.4831 -20.7405 -17.478 -19.322 37.7322 24.9697 6.2709 10.2949 -0.460211 -1.36813e-009 1.55994e-007 -4.83559e-009 
46.023 89.1501 -19.4634 -3.86939 0.469966 -156.65 -34.3877 -21.7492 7.56569 9.76957 41.9749 -6.57731 4.10609 16.7345 -1.43436 0.0462048 0.000533403 0.662642 1.38776 9.1379 0.201322 -3.06619 18.457 0.919011 5.15556 -2.47863 -7.12297 -1.59028e-015 3.18055e-015 -0 -94.1478 -20.0078 -41.7268 -47.9771 63.1219 -79.5955 7.21815 19.4659 -2.26649 23.5918 -3.68615 -16.7359 81.8564 -54.1652 47.2289 -5.82223 65.3609 131.282 -28.5112 17.0878 7.29623 29.6423 -23.4929 -17.6293 -18.5137 36.1333 21.1238 2.97197 10.5885 -0.0728391 -1.36813e-009 1.55994e-007 -4.8356e-009 
44.4966 88.5247 -19.7277 -3.76397 0.670003 -152.764 -35.3923 -18.6419 8.00839 11.4444 41.8253 -10.0812 3.17913 16.4745 -1.28059 0.0462048 0.000533403 0.662642 1.47291 9.27864 0.864986 -3.77078 18.8991 2.20532 7.80751 -2.41467 -11.401 -3.18055e-015 0 3.18055e-015 -91.8828 -14.6452 -40.5165 -45.902 63.0631 -81.7954 7.21815 19.4659 -2.26649 24.8264 -4.05008 -17.4423 79.2576 -61.9527 43.793 -3.37177 67.7604 126.749 -29.789 16.6823 8.38313 30.2772 -25.8736 -17.3521 -17.5301 34.9514 17.2295 -0.483528 12.1859 0.380119 -1.36813e-009 1.55994e-007 -4.83559e-009 
42.6657 87.9619 -20.0203 -3.60304 0.904184 -149.501 -35.8442 -15.7356 8.77687 12.2323 41.5177 -12.7843 2.46498 16.4406 -1.1415 0.0462048 0.000533403 0.662642 1.5098 9.39666 1.40071 -4.41802 19.2811 3.24519 10.2345 -2.35973 -15.0379 1.59028e-015 -3.18055e-015 3.18055e-015 -89.8899 -9.98332 -40.1272 -43.9568 62.8726 -83.5499 7.21815 19.4659 -2.26649 25.703 -4.24703 -17.6853 72.786 -67.3144 36.6407 -0.530665 68.7884 120.853 -30.778 16.2605 9.56504 30.3844 -27.6654 -16.7483 -16.3085 34.2785 13.4367 -3.88381 14.8931 0.985376 -1.36813e-009 1.55994e-007 -4.8356e-009 
40.5803 87.5142 -20.3233 -3.39384 1.18789 -147.031 -35.7419 -13.2839 9.97193 12.1607 41.1968 -14.7815 2.0042 16.7687 -1.02752 0.0462048 0.000533403 0.662642 1.47686 9.51082 1.81395 -4.99517 19.607 4.08426 12.2597 -2.2547 -17.9108 3.18055e-015 0 -9.54166e-015 -88.1616 -6.25782 -40.2788 -42.3799 62.6463 -84.7747 7.21815 19.4659 -2.26649 26.2839 -4.33165 -17.6763 62.8563 -69.3932 26.037 2.40145 68.4652 114.22 -31.5546 15.7389 11.1366 30.0832 -28.7653 -15.9703 -14.9134 34.1145 10.0356 -7.06492 18.3158 1.77606 -1.36812e-009 1.55994e-007 -4.83559e-009 
38.3035 87.2083 -20.6184 -3.13183 1.52444 -145.424 -35.1626 -11.5004 11.5921 11.3939 41.0374 -16.1842 1.87065 17.5253 -0.961182 0.0462048 0.000533403 0.662642 1.39768 9.6212 2.11192 -5.4765 19.8613 4.75069 13.7771 -2.04867 -19.9748 -1.59028e-015 4.77083e-015 3.18055e-015 -86.6966 -3.59081 -40.7041 -41.2632 62.4317 -85.475 7.21815 19.4659 -2.26649 26.6678 -4.37555 -17.6284 53.798 -68.4062 16.2335 5.27688 67.2659 107.558 -32.2009 15.0679 13.2234 29.558 -29.1817 -15.1382 -13.482 34.3766 7.37243 -9.86835 22.0409 2.7086 -1.36813e-009 1.55994e-007 -4.83561e-009 
